<mxfile host="app.diagrams.net" modified="2024-05-19T16:39:00.676Z" agent="Mozilla/5.0 (Windows NT 10.0; Win64; x64) AppleWebKit/537.36 (KHTML, like Gecko) Chrome/124.0.0.0 Safari/537.36 Edg/124.0.0.0" etag="N4U7nfIpVQaEkAxXKY71" version="24.4.4" type="github">
  <diagram name="Page-1" id="AWNy1UqZiqIQ8jtxFmRg">
    <mxGraphModel dx="933" dy="584" grid="1" gridSize="10" guides="1" tooltips="1" connect="1" arrows="1" fold="1" page="1" pageScale="1" pageWidth="850" pageHeight="1100" background="none" math="0" shadow="0">
      <root>
        <mxCell id="0" />
        <mxCell id="1" parent="0" />
        <mxCell id="5u4QWbrpTz6wm8rv1r5W-82" value="" style="group;spacing=-1;fontSize=8;" vertex="1" connectable="0" parent="1">
          <mxGeometry x="292.53" y="660" width="138.95" height="150" as="geometry" />
        </mxCell>
        <mxCell id="5u4QWbrpTz6wm8rv1r5W-79" value="" style="sketch=0;pointerEvents=1;shadow=0;dashed=0;html=1;strokeColor=#82b366;fillColor=#d5e8d4;labelPosition=center;verticalLabelPosition=bottom;verticalAlign=top;outlineConnect=0;align=center;shape=mxgraph.office.concepts.home;" vertex="1" parent="5u4QWbrpTz6wm8rv1r5W-82">
          <mxGeometry width="138.95000000000002" height="150" as="geometry" />
        </mxCell>
        <mxCell id="5u4QWbrpTz6wm8rv1r5W-88" value="" style="group" vertex="1" connectable="0" parent="5u4QWbrpTz6wm8rv1r5W-82">
          <mxGeometry x="23.084647727272724" y="41.16315789473684" width="92.83596874999999" height="85.15263157894736" as="geometry" />
        </mxCell>
        <mxCell id="5u4QWbrpTz6wm8rv1r5W-86" value="Node 2" style="ellipse;whiteSpace=wrap;html=1;aspect=fixed;strokeWidth=0;spacing=0;fontSize=9;" vertex="1" parent="5u4QWbrpTz6wm8rv1r5W-88">
          <mxGeometry x="-6.3159090909090905" y="65.76350441716521" width="33.59965347757164" height="33.59965347757164" as="geometry" />
        </mxCell>
        <mxCell id="5u4QWbrpTz6wm8rv1r5W-84" value="Node 3" style="ellipse;whiteSpace=wrap;html=1;aspect=fixed;strokeWidth=0;spacing=0;fontSize=9;" vertex="1" parent="5u4QWbrpTz6wm8rv1r5W-82">
          <mxGeometry x="88.77038176683011" y="102.6319254697968" width="33.59965347757164" height="33.59965347757164" as="geometry" />
        </mxCell>
        <mxCell id="5u4QWbrpTz6wm8rv1r5W-87" value="Node 1" style="ellipse;whiteSpace=wrap;html=1;aspect=fixed;strokeWidth=0;spacing=0;fontSize=9;" vertex="1" parent="5u4QWbrpTz6wm8rv1r5W-82">
          <mxGeometry x="52.67522600964087" y="41.163157894736834" width="33.59965347757164" height="33.59965347757164" as="geometry" />
        </mxCell>
        <mxCell id="5u4QWbrpTz6wm8rv1r5W-78" value="" style="endArrow=classic;startArrow=classic;html=1;rounded=0;dashed=1;fontColor=#007FFF;strokeColor=#0080FF;" edge="1" parent="1" target="5u4QWbrpTz6wm8rv1r5W-43">
          <mxGeometry width="50" height="50" relative="1" as="geometry">
            <mxPoint x="362" y="500" as="sourcePoint" />
            <mxPoint x="362" y="460" as="targetPoint" />
          </mxGeometry>
        </mxCell>
        <mxCell id="5u4QWbrpTz6wm8rv1r5W-8" value="Broker MQTT" style="rounded=1;whiteSpace=wrap;html=1;" vertex="1" parent="1">
          <mxGeometry x="660" y="512.56" width="120" height="60" as="geometry" />
        </mxCell>
        <mxCell id="5u4QWbrpTz6wm8rv1r5W-20" value="OLED" style="rounded=0;whiteSpace=wrap;html=1;" vertex="1" parent="1">
          <mxGeometry x="70" y="900" width="80" height="44" as="geometry" />
        </mxCell>
        <mxCell id="5u4QWbrpTz6wm8rv1r5W-44" value="" style="edgeStyle=orthogonalEdgeStyle;rounded=0;orthogonalLoop=1;jettySize=auto;html=1;" edge="1" parent="1" target="5u4QWbrpTz6wm8rv1r5W-40">
          <mxGeometry relative="1" as="geometry">
            <mxPoint x="312" y="961.8399999999999" as="sourcePoint" />
          </mxGeometry>
        </mxCell>
        <mxCell id="5u4QWbrpTz6wm8rv1r5W-46" style="edgeStyle=orthogonalEdgeStyle;rounded=0;orthogonalLoop=1;jettySize=auto;html=1;exitX=0;exitY=0.5;exitDx=0;exitDy=0;entryX=1;entryY=0.5;entryDx=0;entryDy=0;" edge="1" parent="1" target="5u4QWbrpTz6wm8rv1r5W-20">
          <mxGeometry relative="1" as="geometry">
            <mxPoint x="312" y="961.8399999999999" as="sourcePoint" />
          </mxGeometry>
        </mxCell>
        <mxCell id="5u4QWbrpTz6wm8rv1r5W-47" style="edgeStyle=orthogonalEdgeStyle;rounded=0;orthogonalLoop=1;jettySize=auto;html=1;exitX=1;exitY=0.5;exitDx=0;exitDy=0;" edge="1" parent="1" target="5u4QWbrpTz6wm8rv1r5W-41">
          <mxGeometry relative="1" as="geometry">
            <mxPoint x="550" y="683.68" as="sourcePoint" />
          </mxGeometry>
        </mxCell>
        <mxCell id="5u4QWbrpTz6wm8rv1r5W-35" value="" style="verticalLabelPosition=bottom;aspect=fixed;html=1;shape=mxgraph.salesforce.web;" vertex="1" parent="1">
          <mxGeometry x="674.05" y="380" width="91.9" height="72.6" as="geometry" />
        </mxCell>
        <mxCell id="5u4QWbrpTz6wm8rv1r5W-36" value="" style="shape=image;html=1;verticalAlign=top;verticalLabelPosition=bottom;labelBackgroundColor=#ffffff;imageAspect=0;aspect=fixed;image=https://cdn3.iconfinder.com/data/icons/2018-social-media-logotypes/1000/2018_social_media_popular_app_logo-whatsapp-128.png" vertex="1" parent="1">
          <mxGeometry x="489.43" y="290" width="60" height="60" as="geometry" />
        </mxCell>
        <mxCell id="5u4QWbrpTz6wm8rv1r5W-38" value="" style="group" vertex="1" connectable="0" parent="1">
          <mxGeometry x="550" y="780.0015384615384" width="237.36842105263156" height="127.36995951416998" as="geometry" />
        </mxCell>
        <mxCell id="5u4QWbrpTz6wm8rv1r5W-6" value="ESP32" style="ellipse;whiteSpace=wrap;html=1;aspect=fixed;" vertex="1" parent="5u4QWbrpTz6wm8rv1r5W-38">
          <mxGeometry x="100.00157894736844" width="47.36842105263158" height="47.36842105263158" as="geometry" />
        </mxCell>
        <mxCell id="5u4QWbrpTz6wm8rv1r5W-17" value="Sensor DHT11" style="ellipse;whiteSpace=wrap;html=1;aspect=fixed;" vertex="1" parent="5u4QWbrpTz6wm8rv1r5W-38">
          <mxGeometry x="190" y="79.99846153846158" width="47.36842105263158" height="47.36842105263158" as="geometry" />
        </mxCell>
        <mxCell id="5u4QWbrpTz6wm8rv1r5W-18" value="Sensor MQ-2" style="ellipse;whiteSpace=wrap;html=1;aspect=fixed;" vertex="1" parent="5u4QWbrpTz6wm8rv1r5W-38">
          <mxGeometry x="100" y="80" width="47.36842105263158" height="47.36842105263158" as="geometry" />
        </mxCell>
        <mxCell id="5u4QWbrpTz6wm8rv1r5W-19" value="Sensor Hujan" style="ellipse;whiteSpace=wrap;html=1;aspect=fixed;" vertex="1" parent="5u4QWbrpTz6wm8rv1r5W-38">
          <mxGeometry y="80.00153846153842" width="47.36842105263158" height="47.36842105263158" as="geometry" />
        </mxCell>
        <mxCell id="5u4QWbrpTz6wm8rv1r5W-39" value="" style="group" vertex="1" connectable="0" parent="1">
          <mxGeometry x="460" y="507" width="130" height="85.56" as="geometry" />
        </mxCell>
        <mxCell id="5u4QWbrpTz6wm8rv1r5W-57" value="" style="rounded=0;whiteSpace=wrap;html=1;" vertex="1" parent="5u4QWbrpTz6wm8rv1r5W-39">
          <mxGeometry x="-10" y="-14.439999999999998" width="140" height="100" as="geometry" />
        </mxCell>
        <mxCell id="5u4QWbrpTz6wm8rv1r5W-22" value="" style="image;aspect=fixed;perimeter=ellipsePerimeter;html=1;align=center;shadow=0;dashed=0;spacingTop=3;image=img/lib/active_directory/web_server.svg;" vertex="1" parent="5u4QWbrpTz6wm8rv1r5W-39">
          <mxGeometry width="60" height="75" as="geometry" />
        </mxCell>
        <mxCell id="5u4QWbrpTz6wm8rv1r5W-16" value="" style="shape=cylinder3;whiteSpace=wrap;html=1;boundedLbl=1;backgroundOutline=1;size=15;" vertex="1" parent="5u4QWbrpTz6wm8rv1r5W-39">
          <mxGeometry x="70" width="50" height="71.11111111111111" as="geometry" />
        </mxCell>
        <mxCell id="5u4QWbrpTz6wm8rv1r5W-40" value="BUZZER" style="rounded=0;whiteSpace=wrap;html=1;" vertex="1" parent="1">
          <mxGeometry x="70" y="983.69" width="80" height="40" as="geometry" />
        </mxCell>
        <mxCell id="5u4QWbrpTz6wm8rv1r5W-41" value="LED RGY" style="ellipse;whiteSpace=wrap;html=1;aspect=fixed;" vertex="1" parent="1">
          <mxGeometry x="690.6300000000001" y="659.9999999999999" width="47.36842105263158" height="47.36842105263158" as="geometry" />
        </mxCell>
        <mxCell id="5u4QWbrpTz6wm8rv1r5W-42" value="" style="aspect=fixed;sketch=0;html=1;dashed=0;whitespace=wrap;verticalLabelPosition=bottom;verticalAlign=top;fillColor=#2875E2;strokeColor=#ffffff;points=[[0.005,0.63,0],[0.1,0.2,0],[0.9,0.2,0],[0.5,0,0],[0.995,0.63,0],[0.72,0.99,0],[0.5,1,0],[0.28,0.99,0]];shape=mxgraph.kubernetes.icon2;kubernetesLabel=1;prIcon=api" vertex="1" parent="1">
          <mxGeometry x="490.58000000000004" y="388.05" width="58.85" height="56.5" as="geometry" />
        </mxCell>
        <mxCell id="5u4QWbrpTz6wm8rv1r5W-43" value="User" style="sketch=0;outlineConnect=0;fontColor=#232F3E;gradientColor=none;strokeColor=#232F3E;fillColor=#ffffff;dashed=0;verticalLabelPosition=bottom;verticalAlign=top;align=center;html=1;fontSize=12;fontStyle=0;aspect=fixed;shape=mxgraph.aws4.resourceIcon;resIcon=mxgraph.aws4.user;" vertex="1" parent="1">
          <mxGeometry x="321.99999999999994" y="350" width="80" height="80" as="geometry" />
        </mxCell>
        <mxCell id="5u4QWbrpTz6wm8rv1r5W-15" value="Internet" style="ellipse;shape=cloud;whiteSpace=wrap;html=1;" vertex="1" parent="1">
          <mxGeometry x="302" y="492.56" width="120" height="80" as="geometry" />
        </mxCell>
        <mxCell id="5u4QWbrpTz6wm8rv1r5W-68" value="" style="endArrow=classic;startArrow=classic;html=1;rounded=0;dashed=1;fontColor=#007FFF;strokeColor=#0080FF;" edge="1" parent="1" source="5u4QWbrpTz6wm8rv1r5W-87" target="5u4QWbrpTz6wm8rv1r5W-15">
          <mxGeometry width="50" height="50" relative="1" as="geometry">
            <mxPoint x="362" y="630" as="sourcePoint" />
            <mxPoint x="400" y="670" as="targetPoint" />
          </mxGeometry>
        </mxCell>
        <mxCell id="5u4QWbrpTz6wm8rv1r5W-69" value="" style="endArrow=classic;startArrow=classic;html=1;rounded=0;entryX=0;entryY=0.5;entryDx=0;entryDy=0;exitX=0.958;exitY=0.613;exitDx=0;exitDy=0;exitPerimeter=0;dashed=1;fontColor=#007FFF;strokeColor=#0080FF;" edge="1" parent="1" source="5u4QWbrpTz6wm8rv1r5W-15" target="5u4QWbrpTz6wm8rv1r5W-57">
          <mxGeometry width="50" height="50" relative="1" as="geometry">
            <mxPoint x="350" y="590" as="sourcePoint" />
            <mxPoint x="400" y="540" as="targetPoint" />
          </mxGeometry>
        </mxCell>
        <mxCell id="5u4QWbrpTz6wm8rv1r5W-70" value="" style="endArrow=classic;startArrow=classic;html=1;rounded=0;entryX=0;entryY=0.5;entryDx=0;entryDy=0;exitX=1;exitY=0.5;exitDx=0;exitDy=0;dashed=1;fontColor=#007FFF;strokeColor=#0080FF;" edge="1" parent="1" source="5u4QWbrpTz6wm8rv1r5W-57" target="5u4QWbrpTz6wm8rv1r5W-8">
          <mxGeometry width="50" height="50" relative="1" as="geometry">
            <mxPoint x="340" y="590" as="sourcePoint" />
            <mxPoint x="390" y="540" as="targetPoint" />
          </mxGeometry>
        </mxCell>
        <mxCell id="5u4QWbrpTz6wm8rv1r5W-71" value="" style="endArrow=classic;startArrow=classic;html=1;rounded=0;entryX=0.495;entryY=1.044;entryDx=0;entryDy=0;entryPerimeter=0;exitX=0.5;exitY=0;exitDx=0;exitDy=0;dashed=1;fontColor=#007FFF;strokeColor=#0080FF;" edge="1" parent="1" source="5u4QWbrpTz6wm8rv1r5W-8" target="5u4QWbrpTz6wm8rv1r5W-35">
          <mxGeometry width="50" height="50" relative="1" as="geometry">
            <mxPoint x="300" y="570" as="sourcePoint" />
            <mxPoint x="350" y="520" as="targetPoint" />
          </mxGeometry>
        </mxCell>
        <mxCell id="5u4QWbrpTz6wm8rv1r5W-74" value="" style="endArrow=classic;startArrow=classic;html=1;rounded=0;exitX=0.5;exitY=0;exitDx=0;exitDy=0;dashed=1;entryX=0.5;entryY=1;entryDx=0;entryDy=0;entryPerimeter=0;fontColor=#007FFF;strokeColor=#0080FF;" edge="1" parent="1" source="5u4QWbrpTz6wm8rv1r5W-57" target="5u4QWbrpTz6wm8rv1r5W-42">
          <mxGeometry width="50" height="50" relative="1" as="geometry">
            <mxPoint x="690" y="523" as="sourcePoint" />
            <mxPoint x="520" y="460" as="targetPoint" />
          </mxGeometry>
        </mxCell>
        <mxCell id="5u4QWbrpTz6wm8rv1r5W-75" value="" style="endArrow=classic;startArrow=classic;html=1;rounded=0;exitX=0.5;exitY=0;exitDx=0;exitDy=0;exitPerimeter=0;entryX=0.5;entryY=1;entryDx=0;entryDy=0;strokeColor=#0080FF;dashed=1;fontColor=#007FFF;" edge="1" parent="1" source="5u4QWbrpTz6wm8rv1r5W-42" target="5u4QWbrpTz6wm8rv1r5W-36">
          <mxGeometry width="50" height="50" relative="1" as="geometry">
            <mxPoint x="420" y="530" as="sourcePoint" />
            <mxPoint x="470" y="480" as="targetPoint" />
          </mxGeometry>
        </mxCell>
        <mxCell id="5u4QWbrpTz6wm8rv1r5W-76" value="" style="endArrow=classic;startArrow=classic;html=1;rounded=0;exitX=0.467;exitY=-0.019;exitDx=0;exitDy=0;exitPerimeter=0;dashed=1;strokeColor=#007FFF;" edge="1" parent="1" source="5u4QWbrpTz6wm8rv1r5W-35" target="5u4QWbrpTz6wm8rv1r5W-43">
          <mxGeometry width="50" height="50" relative="1" as="geometry">
            <mxPoint x="420" y="570" as="sourcePoint" />
            <mxPoint x="470" y="520" as="targetPoint" />
            <Array as="points">
              <mxPoint x="717" y="240" />
              <mxPoint x="360" y="240" />
            </Array>
          </mxGeometry>
        </mxCell>
        <mxCell id="5u4QWbrpTz6wm8rv1r5W-77" value="" style="endArrow=classic;startArrow=classic;html=1;rounded=0;entryX=0;entryY=0.5;entryDx=0;entryDy=0;dashed=1;strokeColor=#0080FF;" edge="1" parent="1" source="5u4QWbrpTz6wm8rv1r5W-43" target="5u4QWbrpTz6wm8rv1r5W-36">
          <mxGeometry width="50" height="50" relative="1" as="geometry">
            <mxPoint x="440" y="430" as="sourcePoint" />
            <mxPoint x="470" y="430" as="targetPoint" />
            <Array as="points">
              <mxPoint x="440" y="390" />
              <mxPoint x="440" y="320" />
            </Array>
          </mxGeometry>
        </mxCell>
        <mxCell id="5u4QWbrpTz6wm8rv1r5W-90" value="" style="endArrow=classic;startArrow=classic;html=1;rounded=0;dashed=1;fontColor=#007FFF;strokeColor=#0080FF;exitX=1;exitY=0.5;exitDx=0;exitDy=0;entryX=0.8;entryY=0.8;entryDx=0;entryDy=0;entryPerimeter=0;" edge="1" parent="1" source="5u4QWbrpTz6wm8rv1r5W-84" target="5u4QWbrpTz6wm8rv1r5W-15">
          <mxGeometry width="50" height="50" relative="1" as="geometry">
            <mxPoint x="440" y="810" as="sourcePoint" />
            <mxPoint x="372" y="583" as="targetPoint" />
            <Array as="points">
              <mxPoint x="440" y="780" />
              <mxPoint x="440" y="640" />
              <mxPoint x="398" y="640" />
            </Array>
          </mxGeometry>
        </mxCell>
        <mxCell id="5u4QWbrpTz6wm8rv1r5W-91" value="" style="endArrow=classic;startArrow=classic;html=1;rounded=0;dashed=1;fontColor=#007FFF;strokeColor=#0080FF;exitX=0;exitY=0.5;exitDx=0;exitDy=0;entryX=0.311;entryY=0.867;entryDx=0;entryDy=0;entryPerimeter=0;" edge="1" parent="1" source="5u4QWbrpTz6wm8rv1r5W-86" target="5u4QWbrpTz6wm8rv1r5W-15">
          <mxGeometry width="50" height="50" relative="1" as="geometry">
            <mxPoint x="425" y="789" as="sourcePoint" />
            <mxPoint x="340" y="590" as="targetPoint" />
            <Array as="points">
              <mxPoint x="280" y="784" />
              <mxPoint x="280" y="640" />
              <mxPoint x="340" y="640" />
            </Array>
          </mxGeometry>
        </mxCell>
      </root>
    </mxGraphModel>
  </diagram>
</mxfile>
